<svg width="18" height="14" viewBox="0 0 18 14" fill="none" xmlns="http://www.w3.org/2000/svg">
<path fill-rule="evenodd" clip-rule="evenodd" d="M15.875 0.125H2.125C1.43464 0.125 0.875 0.684644 0.875 1.375V12.625C0.875 13.3154 1.43464 13.875 2.125 13.875H15.875C16.5654 13.875 17.125 13.3154 17.125 12.625V1.375C17.125 0.684644 16.5654 0.125 15.875 0.125ZM15.875 1.375V9.40234L13.8383 7.36641C13.6039 7.13192 13.2859 7.00019 12.9543 7.00019C12.6227 7.00019 12.3047 7.13192 12.0703 7.36641L10.5078 8.92891L7.07031 5.49141C6.58222 5.00364 5.79121 5.00364 5.30312 5.49141L2.125 8.66953V1.375H15.875ZM2.125 10.4375L6.1875 6.375L12.4375 12.625H2.125V10.4375ZM15.875 12.625H14.2055L11.393 9.8125L12.9555 8.25L15.875 11.1703V12.625ZM10.25 4.8125C10.25 4.29473 10.6697 3.875 11.1875 3.875C11.7053 3.875 12.125 4.29473 12.125 4.8125C12.125 5.33027 11.7053 5.75 11.1875 5.75C10.6697 5.75 10.25 5.33027 10.25 4.8125Z" fill="#5C738A"/>
</svg>
